<svg width="136" height="120" viewBox="0 0 136 120" fill="#00000" xmlns="http://www.w3.org/2000/svg">
<path d="M19.1473 87.7134C21.7191 85.3446 28.9238 82.3893 29.5359 82.1296C28.1889 78.6996 27.1204 75.1597 26.3376 71.5339C25.8597 69.4146 25.4657 67.2751 25.0924 65.1007C25.0973 66.1383 25.1067 67.0926 25.0284 67.1489C24.5549 70.8129 21.1734 77.9281 16.6533 79.2945C15.8938 79.5021 15.1155 79.5706 14.3692 79.4956C13.6229 79.4206 12.9252 79.2038 12.3217 78.8594C11.7181 78.5149 11.2222 78.0505 10.8663 77.4963C10.5103 76.9422 10.3022 76.3108 10.2557 75.6432C9.93908 72.8274 12.2719 69.6493 14.552 67.5301C16.8321 65.411 22.9735 62.7793 24.5744 62.1093L24.1306 59.7053C23.5188 55.7201 22.9227 51.7236 22.207 47.8531C21.957 46.4711 21.6551 45.1464 21.2955 43.843C21.2993 44.7613 21.2806 45.5356 21.2712 45.6425C20.782 49.3177 17.4161 56.4218 12.896 57.7882C12.1344 57.9975 11.3538 58.067 10.6052 57.9922C9.85652 57.9173 9.15682 57.6998 8.55182 57.3539C7.94682 57.008 7.45018 56.5415 7.09448 55.985C6.73879 55.4284 6.53206 54.7944 6.48779 54.1244C6.18182 51.3209 8.51453 48.1429 10.7946 46.0237C13.0747 43.9046 18.6041 41.5325 20.5399 40.722C20.1641 39.3703 19.8147 38.0197 19.3976 36.7377C19.0947 35.8541 18.8656 34.9976 18.4895 34.1467C18.1135 33.2958 17.8162 32.4482 17.477 31.6108C16.8054 30.0912 16.027 28.3882 15.2765 26.8652C14.7567 25.8173 14.2424 24.8053 13.7388 23.8058C14.0094 25.153 14.4769 27.8203 14.4793 28.0588C14.6408 31.6669 12.4698 39.0134 8.12327 40.9358C7.39152 41.2372 6.61743 41.4071 5.85103 41.4344C5.08463 41.4617 4.34302 41.3459 3.6741 41.0945C3.00518 40.843 2.42387 40.4615 1.96775 39.9745C1.51163 39.4876 1.19088 38.9062 1.0262 38.2677C0.232755 35.5744 2.03816 32.1945 3.93799 29.8682C6.06637 27.2774 12.5389 23.5869 13.3276 23.1202C12.4759 21.4498 11.6248 19.839 10.7905 18.3363C8.96637 15.0021 7.24082 12.0776 5.80843 9.58311L8.31227 7.78369C9.80843 10.3525 11.5621 13.457 13.3673 17.005C14.2402 18.7002 15.1406 20.5158 16.0366 22.4147C18.321 21.6846 20.6341 21.072 22.9633 20.5802C23.9205 17.3502 25.3638 14.1906 27.2523 11.1909C25.4315 10.337 23.6376 9.54395 21.9231 8.81393C18.4047 7.3381 15.1133 5.97942 12.3029 4.91579L15.0258 2.9589C17.5366 3.99764 20.327 5.15576 23.425 6.6134C25.2876 7.45715 27.2616 8.40113 29.2675 9.38224C29.8811 8.74106 34.9625 3.54754 38.1576 2.05225C41.0441 0.698621 45.0209 -0.357411 47.8269 0.789492C48.4927 1.04263 49.0709 1.42492 49.5242 1.91182C49.9775 2.39872 50.296 2.97943 50.4591 3.61657C50.6222 4.2537 50.6264 4.93314 50.4713 5.61123C50.3162 6.28932 50.0053 6.95104 49.5587 7.55376C46.757 11.1289 38.3957 11.8521 34.4907 11.1346C34.2593 11.1007 31.8672 10.3771 30.3496 9.90602C31.1677 10.2991 31.9914 10.7283 32.8095 11.1214C34.4514 11.9437 36.0463 12.7997 37.8157 13.7706C38.64 14.2594 39.4643 14.7481 40.3149 15.238C41.1655 15.728 41.9541 16.3225 42.784 16.8473C44.6983 18.1345 46.535 19.5376 48.3616 20.9879C49.4143 19.5906 53.1904 14.6745 55.8737 12.9663C58.5571 11.2581 62.3979 9.7192 65.41 10.4577C66.1308 10.6091 66.7852 10.8995 67.3302 11.3099C67.8752 11.7203 68.2986 12.2413 68.5724 12.8388C68.8462 13.4363 68.9643 14.0967 68.9189 14.7766C68.8735 15.4564 68.6656 16.1404 68.3089 16.7836C66.0984 20.6347 57.7795 22.4686 53.7065 22.2923C53.4437 22.281 50.5872 21.8712 49.0457 21.6375C50.1313 22.5192 51.2325 23.3896 52.2818 24.3174C55.3339 26.9892 58.319 29.7894 61.3197 32.5783L64.0867 35.0947C64.4549 34.6099 68.7521 28.7386 71.8217 26.7728C74.5001 25.0882 78.3459 23.5257 81.3581 24.2642C82.0799 24.4164 82.7353 24.7077 83.2812 25.1189C83.8272 25.5301 84.2514 26.052 84.5261 26.6504C84.8008 27.2488 84.9198 27.9103 84.8752 28.5913C84.8307 29.2724 84.6236 29.9577 84.2676 30.6025C82.0464 34.4412 73.7275 36.2752 69.6545 36.0989C69.3498 36.0976 65.2358 35.4903 64.2042 35.2907C66.2502 37.1439 68.3011 38.9736 70.4141 40.6986C73.2575 43.0283 76.2912 45.1748 79.4972 47.1252C79.6788 46.8946 84.1414 40.7442 87.2842 38.7459C89.9626 37.0613 93.7977 35.4864 96.8205 36.2373C97.5412 36.3887 98.1956 36.6791 98.7407 37.0895C99.2857 37.4999 99.709 38.0209 99.9828 38.6184C100.257 39.2159 100.375 39.8763 100.329 40.5562C100.284 41.236 100.076 41.92 99.7194 42.5632C97.5089 46.4143 89.1793 48.2359 85.1169 48.072C84.8016 48.0583 80.4092 47.4509 79.5928 47.2367L80.1375 47.6061C83.4405 49.4587 86.9627 51.0275 90.6639 52.2946C92.7093 53.0271 94.7061 53.6143 96.676 54.1407C97.3994 52.92 100.76 47.4016 103.314 45.3659C105.868 43.3301 109.496 41.5436 112.631 41.9535C113.376 42.0319 114.072 42.2514 114.674 42.5978C115.276 42.9443 115.77 43.4099 116.124 43.9647C116.479 44.5195 116.686 45.1511 116.732 45.8186C116.778 46.4861 116.663 47.1747 116.393 47.8398C114.708 51.7733 106.481 54.422 102.334 54.6599C102.118 54.6744 99.8585 54.5766 98.2186 54.4937C99.0982 54.7225 100.015 54.9649 100.889 55.1577C104.101 55.9526 107.195 56.4323 109.93 56.8488C111.487 57.0712 112.845 57.2969 114.212 57.4157C115.558 56.4485 121.116 52.6945 124.26 51.8767C127.404 51.0588 131.346 50.7883 133.695 52.4639C134.269 52.8446 134.728 53.3401 135.042 53.9184C135.357 54.4967 135.519 55.1447 135.519 55.8205C135.519 56.4963 135.357 57.1847 135.043 57.8411C134.73 58.4974 134.271 59.107 133.697 59.6303C130.155 62.6964 122.083 61.8104 118.549 60.3458C118.248 60.2017 113.795 57.7553 113.92 57.6654L113.999 57.6091C112.726 57.4825 111.353 57.3277 109.87 57.1323C107.14 56.7518 104.083 56.2857 100.799 55.6427C97.2337 54.9332 93.7513 54.0259 90.3706 52.9258C86.5717 51.7253 82.954 50.2038 79.562 48.38L79.4876 48.2934C80.2422 49.1726 82.3785 51.6618 82.5486 51.8599C84.4167 54.8621 85.8517 61.8997 82.5585 65.1674C81.9958 65.6994 81.3282 66.1352 80.5991 66.4465C79.8701 66.7579 79.096 66.9376 78.3275 66.9741C77.5589 67.0106 76.8131 66.9031 76.1389 66.6584C75.4646 66.4137 74.8771 66.0375 74.4145 65.5542C72.3568 63.5692 72.4742 60.021 73.2249 57.2991C74.0879 54.2362 78.8011 48.4663 79.1643 48.0051C75.7777 46.0694 72.5715 43.9192 69.5664 41.5682C67.7985 40.2158 66.0877 38.7824 64.3605 37.3006C65.0301 38.0808 65.6146 38.7619 65.6997 38.861C67.5678 41.8632 69.0028 48.9008 65.7096 52.1685C65.1469 52.7004 64.4793 53.1363 63.7502 53.4476C63.0212 53.7589 62.2471 53.9387 61.4786 53.9752C60.71 54.0117 59.9642 53.9041 59.29 53.6594C58.6157 53.4148 58.0282 53.0385 57.5656 52.5553C55.5079 50.5703 55.6359 47.0345 56.3867 44.3125C57.1374 41.5906 61.0543 36.5733 62.1132 35.2717C61.4666 34.6952 60.8469 34.1795 60.1791 33.5783C57.0951 30.8692 54.0423 28.1377 50.9438 25.5591C49.8527 24.6415 48.7201 23.7936 47.6033 22.9344C48.1878 23.6155 48.6661 24.1728 48.7617 24.2843C50.6299 27.2865 52.0649 34.3241 48.7717 37.5918C48.209 38.1237 47.5414 38.5596 46.8123 38.8709C46.0833 39.1822 45.3092 39.3619 44.5406 39.3984C43.7721 39.4349 43.0263 39.3274 42.352 39.0827C41.6778 38.8381 41.0902 38.4617 40.6277 37.9785C38.5699 35.9935 38.698 32.4577 39.4487 29.7358C40.1995 27.0139 43.7482 22.4814 44.9937 20.9256C43.8086 20.0754 42.6391 19.2139 41.4339 18.4583C40.6147 17.9458 39.853 17.412 38.9973 16.9458C38.1417 16.4795 37.3018 16.002 36.4724 15.5368C34.8306 14.7145 33.1094 13.8292 31.5156 13.0925C30.3754 12.5304 29.2727 12.0415 28.1537 11.5042C29.2655 12.387 31.3635 14.1829 31.5123 14.3563C33.5238 16.7674 34.7161 19.69 34.9735 22.8408C35.2389 23.0758 35.4672 23.3418 35.6537 23.6334C36.004 24.1917 36.2059 24.8262 36.2464 25.4956C36.2869 26.165 36.165 26.8545 35.8887 27.5194C35.6125 28.1842 35.1879 28.8095 34.6426 29.3548C34.0973 29.9001 33.4434 30.3533 32.7234 30.6848C28.3449 32.5701 21.5762 29.1053 19.0239 26.5147C18.8857 26.3537 17.5124 24.5176 16.6603 23.3479C17.0252 24.1268 17.3632 24.845 17.76 25.6611C18.4847 27.2426 19.1519 28.8454 19.8728 30.5698C20.1857 31.406 20.5092 32.2547 20.8277 33.127C21.1462 33.9994 21.4022 34.9166 21.7 35.8238C22.3249 37.9375 22.8453 40.1064 23.298 42.3438C24.9716 41.5816 30.8866 38.8924 33.9838 38.6688C37.0811 38.4451 40.9574 38.9229 42.7804 41.0765C43.2396 41.566 43.5614 42.1516 43.7245 42.7946C43.8877 43.4376 43.8885 44.1234 43.727 44.807C43.5655 45.4906 43.2452 46.1563 42.7874 46.7604C42.3296 47.3645 41.7445 47.8933 41.0707 48.3119C36.9759 50.7341 29.5239 48.301 26.5609 46.1457C26.4121 45.9723 24.4774 44.2192 23.4589 43.2093C23.7295 44.5565 23.9896 45.8913 24.2183 47.2486C24.8401 51.1865 25.3367 55.2145 25.8489 59.2311C25.9941 60.4616 26.155 61.6808 26.3314 62.8888C26.9172 62.628 33.967 59.4036 37.4209 59.1239C40.5181 58.9002 44.3994 59.3544 46.2068 61.5193C46.669 62.0075 46.9933 62.5927 47.1581 63.236C47.3229 63.8793 47.3245 64.5659 47.1628 65.2503C47.0011 65.9347 46.6797 66.6011 46.2201 67.2053C45.7605 67.8095 45.1732 68.3377 44.4971 68.7546C40.4023 71.1768 32.966 68.7325 29.9873 66.5884C29.8173 66.3903 27.0447 63.8378 26.3919 63.1657C26.7599 65.8645 27.2017 68.5903 27.6787 71.1508C28.3625 74.6786 29.3071 78.1326 30.5067 81.4919C30.7415 81.3232 38.1422 78.0068 41.6694 77.6944C44.7666 77.4708 48.6323 77.9361 50.4553 80.0898C50.9145 80.5793 51.2363 81.1649 51.3994 81.8079C51.5626 82.4509 51.5634 83.1367 51.4019 83.8203C51.2404 84.5038 50.9201 85.1696 50.4623 85.7737C50.0045 86.3778 49.4193 86.9066 48.7456 87.3252C44.6508 89.7473 37.1988 87.3143 34.2358 85.159C34.0551 84.9485 31.0706 82.2079 30.5873 81.6743C30.7149 81.8229 30.7015 82.0727 30.7771 82.2787C32.098 85.5993 33.7676 88.7679 35.7662 91.7476C36.8438 93.4159 37.9934 94.9323 39.1687 96.3902C40.4694 95.6356 46.4774 92.2588 49.6975 91.7066C52.9175 91.1544 56.7798 91.262 58.847 93.14C59.3617 93.5782 59.7504 94.1211 59.9878 94.7335C60.2251 95.346 60.3059 96.0143 60.225 96.6953C60.144 97.3763 59.9031 98.0548 59.5178 98.6868C59.1325 99.3189 58.6114 99.8904 57.9882 100.365C54.1541 103.12 46.3055 101.492 43.062 99.6589C42.945 99.5227 41.2315 98.3515 40.0408 97.4652C40.5935 98.1092 41.1568 98.7656 41.6775 99.3724C43.6544 101.676 45.649 103.646 47.4153 105.38C48.4439 106.343 49.3981 107.219 50.3042 108.009C51.9255 107.805 58.4905 107.111 61.3718 107.904C64.2531 108.696 67.4217 110.383 68.1257 113.061C68.318 113.691 68.3514 114.369 68.2236 115.05C68.0959 115.732 67.8098 116.402 67.384 117.017C66.9582 117.633 66.4022 118.18 65.7518 118.623C65.1015 119.067 64.3715 119.396 63.609 119.591C58.9965 120.643 53.4493 115.86 51.7169 112.78C51.515 112.545 49.8055 108.047 49.9213 108.064C49.0471 107.311 48.1041 106.507 47.118 105.594C45.2784 103.892 43.2212 101.967 41.1818 99.7086C38.9456 97.3092 36.8895 94.7757 35.0239 92.1209C32.9118 89.1489 31.1365 85.9753 29.7195 82.6384C29.6844 82.6106 29.6556 82.5771 29.6345 82.5393C29.6881 83.722 29.6684 87.0599 29.6395 87.321C29.1553 90.9726 25.7844 98.1002 21.2005 99.3923C20.441 99.5998 19.6628 99.6684 18.9164 99.5934C18.1701 99.5184 17.4724 99.3016 16.8689 98.9571C16.2654 98.6127 15.7695 98.1483 15.4135 97.5941C15.0575 97.04 14.8495 96.4086 14.8029 95.741C14.5344 93.0107 16.8672 89.8326 19.1473 87.7134Z" fill="#556D49" fill-opacity="0.33"/>
</svg>
